<svg xmlns="http://www.w3.org/2000/svg" viewBox="-17118 -24712 15 15">
  <defs>
    <style>
      .cls-1 {
        fill: #666;
        opacity: 0.35;
      }
    </style>
  </defs>
  <path id="globe" class="cls-1" d="M135.5,128a7.337,7.337,0,0,1,3.765,1.006,7.466,7.466,0,0,1,2.729,2.729,7.548,7.548,0,0,1,0,7.529,7.466,7.466,0,0,1-2.729,2.729,7.548,7.548,0,0,1-7.529,0,7.466,7.466,0,0,1-2.729-2.729,7.548,7.548,0,0,1,0-7.529,7.466,7.466,0,0,1,2.729-2.729A7.337,7.337,0,0,1,135.5,128Zm2.676,5.088a.553.553,0,0,0-.093.093.252.252,0,0,1-.132.093q.02,0,.044-.049t.049-.107a.3.3,0,0,1,.034-.068.706.706,0,0,1,.215-.146,2.46,2.46,0,0,1,.508-.117.476.476,0,0,1,.5.107q-.02-.02.093-.127a.672.672,0,0,1,.142-.117.527.527,0,0,1,.146-.044.218.218,0,0,0,.146-.073l.02-.215a.174.174,0,0,1-.171-.068.413.413,0,0,1-.063-.205q0,.02-.059.078,0-.068-.044-.078a.235.235,0,0,0-.112.01.154.154,0,0,1-.088.01.383.383,0,0,1-.146-.073.322.322,0,0,1-.078-.161q-.029-.117-.039-.146a.261.261,0,0,0-.093-.1.261.261,0,0,1-.093-.1q-.01-.02-.024-.054t-.029-.063a.206.206,0,0,0-.039-.054.075.075,0,0,0-.054-.024q-.029,0-.068.049t-.073.1q-.034.049-.044.049a.08.08,0,0,0-.059-.015.311.311,0,0,0-.044.01.164.164,0,0,0-.044.029.273.273,0,0,1-.049.034.223.223,0,0,1-.083.029.638.638,0,0,0-.083.02q.146-.049-.01-.107a.308.308,0,0,0-.156-.029.1.1,0,0,0,.073-.117.235.235,0,0,0-.083-.137h.049q-.01-.039-.083-.083a1.2,1.2,0,0,0-.171-.083.842.842,0,0,1-.127-.059,1.082,1.082,0,0,0-.332-.093.605.605,0,0,0-.322,0,.145.145,0,0,0-.044.1.661.661,0,0,0,.039.137.472.472,0,0,1,.034.122.155.155,0,0,1-.054.127.191.191,0,0,0-.063.117q0,.068.137.151a.172.172,0,0,1,.1.21.354.354,0,0,1-.156.156.654.654,0,0,0-.156.117.2.2,0,0,0-.015.181.354.354,0,0,0,.1.161.041.041,0,0,1,.015.039.1.1,0,0,1-.034.044.436.436,0,0,1-.054.039q-.024.015-.063.034l-.029.02a.16.16,0,0,1-.2-.059.631.631,0,0,1-.132-.254q-.068-.244-.156-.293-.225-.078-.283.01-.049-.127-.4-.254a1.151,1.151,0,0,0-.566-.039q.059-.01,0-.146t-.186-.117a.49.49,0,0,0,.039-.171q.01-.112.01-.132a.5.5,0,0,1,.117-.225q.01-.01.068-.083a1.12,1.12,0,0,0,.093-.132q.034-.059,0-.059a.576.576,0,0,0,.488-.107.751.751,0,0,0,.112-.166,1.216,1.216,0,0,1,.1-.166.237.237,0,0,1,.137-.054.437.437,0,0,1,.142.054.344.344,0,0,0,.142.049q.137.01.151-.107a.212.212,0,0,0-.073-.2q.117.01.029-.166a.372.372,0,0,0-.078-.088.313.313,0,0,0-.264.049q-.078.039.02.078-.01-.01-.093.1a.826.826,0,0,1-.161.171q-.078.059-.156-.049a.788.788,0,0,1-.054-.132q-.044-.122-.093-.132-.078,0-.156.146.029-.078-.107-.146a.7.7,0,0,0-.234-.078q.186-.117-.078-.264a.485.485,0,0,0-.2-.049.18.18,0,0,0-.244.151.083.083,0,0,0,.049.078.626.626,0,0,0,.1.054q.049.02.112.039a.668.668,0,0,1,.083.029q.137.1.078.137-.02.01-.083.034l-.112.044a.111.111,0,0,0-.059.039.16.16,0,0,0,0,.137q.029.1-.02.137a.433.433,0,0,1-.088-.171.623.623,0,0,0-.068-.161q.068.088-.244.059l-.1-.01a1.2,1.2,0,0,0-.156.02.726.726,0,0,1-.2.01.182.182,0,0,1-.132-.078.252.252,0,0,1,0-.2q.01-.039.039-.02-.039-.029-.107-.093a.953.953,0,0,0-.1-.083,5.538,5.538,0,0,0-.918.4.24.24,0,0,0,.117-.01,1.134,1.134,0,0,0,.127-.063l.1-.054q.332-.137.41-.068l.049-.049a2.6,2.6,0,0,1,.2.244.555.555,0,0,0-.293-.01q-.2.059-.215.117a.239.239,0,0,1,.049.176q-.039-.029-.112-.1a.774.774,0,0,0-.142-.107.39.39,0,0,0-.146-.049,1.548,1.548,0,0,0-.215.01,6.162,6.162,0,0,0-2.295,2.168.259.259,0,0,0,.117.078q.039.01.049.088a.374.374,0,0,0,.024.107q.015.029.112-.029a.137.137,0,0,1,.029.186,3.582,3.582,0,0,1,.43.264,1.332,1.332,0,0,1,.205.205q.029.107-.1.176a.5.5,0,0,0-.088-.088q-.078-.068-.088-.039a.261.261,0,0,0,0,.181q.034.132.1.122-.068,0-.093.156a2.255,2.255,0,0,0-.024.347,1.456,1.456,0,0,1-.01.229l.02.01a.608.608,0,0,0,.054.337q.083.22.21.19-.127.029.2.42a.383.383,0,0,0,.078.088l.117.073q.088.054.146.1a.417.417,0,0,1,.1.1.859.859,0,0,1,.1.22.478.478,0,0,0,.137.229q-.02.059.093.2a.335.335,0,0,1,.1.225.047.047,0,0,0-.024.01.047.047,0,0,1-.024.01.333.333,0,0,0,.151.137.367.367,0,0,1,.151.127.624.624,0,0,1,.02.1.36.36,0,0,0,.029.107q.02.039.078.02a1.149,1.149,0,0,0-.234-.605q-.146-.244-.166-.283a.561.561,0,0,1-.054-.151.745.745,0,0,0-.044-.142.187.187,0,0,1,.059.015l.083.034a.5.5,0,0,1,.073.039q.029.02.02.029a.207.207,0,0,0,.02.171.784.784,0,0,0,.117.181q.068.078.166.186t.117.127a1,1,0,0,1,.137.19q.078.132,0,.132a.308.308,0,0,1,.2.1.885.885,0,0,1,.166.2.731.731,0,0,1,.078.254,1.883,1.883,0,0,0,.049.234.309.309,0,0,0,.083.132.485.485,0,0,0,.122.093l.156.078.127.068a1.423,1.423,0,0,1,.181.1,1.26,1.26,0,0,0,.21.112.45.45,0,0,0,.156.039.516.516,0,0,0,.142-.024q.083-.024.132-.034a.318.318,0,0,1,.283.146.963.963,0,0,0,.205.205.669.669,0,0,0,.537.107q-.02.01,0,.073a.97.97,0,0,0,.078.151l.088.142.054.083a.927.927,0,0,0,.176.146.927.927,0,0,1,.176.146.144.144,0,0,0,.068-.088q-.029.078.068.2t.176.1q.137-.029.137-.312a.329.329,0,0,1-.479-.176.19.19,0,0,0-.024-.054.58.58,0,0,1-.063-.166.138.138,0,0,1,0-.073.045.045,0,0,1,.049-.029q.088,0,.1-.034a.244.244,0,0,0-.02-.122q-.029-.088-.039-.127a.422.422,0,0,0-.107-.2q-.1-.117-.117-.146a.148.148,0,0,1-.156.078.193.193,0,0,1-.156-.088.269.269,0,0,1-.015.054.232.232,0,0,0-.015.063.557.557,0,0,1-.146-.01,1.208,1.208,0,0,0,.024-.171,1.665,1.665,0,0,1,.034-.22.543.543,0,0,1,.054-.117q.044-.078.073-.142a.481.481,0,0,0,.039-.122.086.086,0,0,0-.044-.093.283.283,0,0,0-.171-.024.27.27,0,0,0-.254.2q-.01.029-.029.1a.331.331,0,0,1-.049.112.243.243,0,0,1-.088.068.825.825,0,0,1-.469-.029.619.619,0,0,1-.22-.283.9.9,0,0,1-.093-.361,1.814,1.814,0,0,1,.024-.259q.024-.161.029-.244a.641.641,0,0,0-.054-.239.5.5,0,0,0,.088-.093.606.606,0,0,1,.1-.1.174.174,0,0,1,.044-.015.1.1,0,0,1,.044,0,.041.041,0,0,0,.039-.015.124.124,0,0,0,.029-.059.29.29,0,0,0-.039-.029q-.029-.029-.039-.029a.56.56,0,0,0,.278-.015q.21-.044.269.015.146.107.215-.02a.776.776,0,0,0-.024-.093.206.206,0,0,1,0-.132q.049.264.283.088a.316.316,0,0,0,.151.049.52.52,0,0,1,.171.049.684.684,0,0,1,.068.054.662.662,0,0,0,.054.044q.015.01.049,0a.294.294,0,0,0,.083-.063.65.65,0,0,1,.117.234q.107.391.186.43a.179.179,0,0,0,.107.02q.039-.01.044-.093a.949.949,0,0,0,0-.137q0-.054-.015-.122l-.01-.078v-.176l-.01-.078a.22.22,0,0,1-.181-.117.21.21,0,0,1,.015-.181.663.663,0,0,1,.146-.181.319.319,0,0,1,.078-.034q.068-.024.151-.063a.439.439,0,0,0,.122-.078q.205-.186.146-.342.068,0,.107-.088a.143.143,0,0,1-.049-.029.714.714,0,0,0-.073-.049.133.133,0,0,0-.044-.02q.088-.049.02-.156a.182.182,0,0,0,.073-.107.141.141,0,0,1,.073-.1.125.125,0,0,0,.205.02.113.113,0,0,0,.01-.156.329.329,0,0,1,.2-.1q.151-.034.181-.093.068.02.078-.02a.52.52,0,0,0,.01-.117.194.194,0,0,1,.029-.117.333.333,0,0,1,.146-.088q.107-.039.127-.049l.166-.107q.029-.039,0-.039a.353.353,0,0,0,.3-.107q.1-.107-.059-.2a.063.063,0,0,0-.029-.093.511.511,0,0,0-.146-.054.354.354,0,0,1,.112,0q.083,0,.1-.015.146-.1-.068-.156A.529.529,0,0,0,138.176,133.088Zm-1.592,8.564a6.043,6.043,0,0,0,3.428-1.846.233.233,0,0,0-.122-.044.351.351,0,0,1-.122-.034,1.536,1.536,0,0,0-.234-.078.191.191,0,0,0-.024-.127.261.261,0,0,0-.078-.088l-.122-.078-.107-.068q-.02-.02-.068-.059l-.068-.054a.692.692,0,0,0-.073-.044.112.112,0,0,0-.083-.02.342.342,0,0,1-.1.01l-.029.01a.27.27,0,0,0-.054.024l-.054.029a.1.1,0,0,0-.039.029q-.01.015,0,.024a1.209,1.209,0,0,0-.352-.215.276.276,0,0,1-.107-.054.928.928,0,0,0-.1-.068.143.143,0,0,0-.1-.015.223.223,0,0,0-.112.068.234.234,0,0,0-.059.146.74.74,0,0,1-.02.127q-.068-.049,0-.171t.02-.181a.084.084,0,0,0-.1-.044.327.327,0,0,0-.117.044q-.044.029-.112.083a.761.761,0,0,1-.088.063.936.936,0,0,0-.083.054.329.329,0,0,0-.083.073.485.485,0,0,0-.059.117.591.591,0,0,1-.049.107q-.02-.039-.112-.063t-.093-.054a3.4,3.4,0,0,1,.039.342,2.742,2.742,0,0,0,.049.371.451.451,0,0,1-.117.469.8.8,0,0,0-.283.391q-.039.215.117.254a.452.452,0,0,1-.078.2.362.362,0,0,0-.068.21A.841.841,0,0,0,136.584,141.652Z" transform="translate(-17246 -24840)"/>
</svg>
