<svg xmlns="http://www.w3.org/2000/svg" viewBox="-18602 -22769 59.594 65.801">
  <defs>
    <style>
      .cls-1 {
        fill: #65b32e;
      }
    </style>
  </defs>
  <g id="Gruppe_4358" data-name="Gruppe 4358" transform="translate(-18797 -24305)">
    <path id="Pfad_77827" data-name="Pfad 77827" class="cls-1" d="M196.444,20.335l16.772,17.448s9.338,12.041-1.782,23.284c-5.038,5.1-11.918,5.345-16.588,4.116a16.8,16.8,0,0,1-6.574-3.379l-2.642-2.7,9.707-9.584,1.352,1.413s3.133,2.457,5.222.246a3.675,3.675,0,0,0,.43-4.853l-16.71-17.448A18.345,18.345,0,0,1,181.7,17.632C181.638,10.2,187.72.061,199.516,0,210.7-.062,216.9,9.952,216.9,17.079c0,10.751-6.758,14.56-6.758,14.56l-9.461-9.891L202.1,20.4a4.17,4.17,0,0,0,.922-3.625,3.309,3.309,0,0,0-3.5-2.7,3.628,3.628,0,0,0-3.563,2.15,4.275,4.275,0,0,0,.491,4.116Z" transform="translate(37.691 1536)"/>
    <path id="Pfad_77828" data-name="Pfad 77828" class="cls-1" d="M172.9,55.7l9.584,10.014L161.414,86.786H142Z" transform="translate(53.001 1514.52)"/>
  </g>
</svg>
