<svg xmlns="http://www.w3.org/2000/svg" viewBox="-18607 -24713 220 65.801">
  <defs>
    <style>
      .cls-1 {
        fill-rule: evenodd;
      }

      .cls-2 {
        fill: #65b32e;
      }
    </style>
  </defs>
  <g id="Gruppe_3587" data-name="Gruppe 3587" transform="translate(-18606.9 -24713)">
    <path id="Pfad_77813" data-name="Pfad 77813" d="M9.853,52.88a4.71,4.71,0,0,0-4.3-2.58A4.389,4.389,0,0,0,.883,54.539c0,2.4,1.659,3.379,3.625,4.3l.983.43c1.536.737,3.072,1.352,3.072,3.318a3.357,3.357,0,0,1-3.44,3.256A3.5,3.5,0,0,1,1.743,62.71L-.1,63.2a5.172,5.172,0,0,0,5.222,4.3,5.218,5.218,0,0,0,5.283-5.161c0-2.642-1.843-3.748-3.993-4.731l-1.106-.491c-1.106-.491-2.642-1.167-2.642-2.642A2.638,2.638,0,0,1,5.429,51.9,3.092,3.092,0,0,1,8.317,53.74l1.536-.86Z" transform="translate(0 -19.398)"/>
    <path id="Pfad_77814" data-name="Pfad 77814" d="M33.7,51.959A8.087,8.087,0,0,0,28.724,50.3a8.663,8.663,0,1,0,0,17.325A8.49,8.49,0,0,0,33.7,65.966V63.631a7.3,7.3,0,0,1-5.038,2.212A6.944,6.944,0,0,1,28.6,51.959a7.327,7.327,0,0,1,5.1,2.212V51.959Z" transform="translate(-7.751 -19.398)"/>
    <path id="Pfad_77815" data-name="Pfad 77815" d="M49.4,57.558V50.8H47.5V67.51h1.9V59.278h8.54V67.51h1.9V50.8h-1.9v6.758Z" transform="translate(-18.357 -19.591)"/>
    <path id="Pfad_77816" data-name="Pfad 77816" d="M75.043,50.8H73.2V61.305c0,1.9.184,3.44,1.659,4.853a6.25,6.25,0,0,0,4.3,1.72,6.127,6.127,0,0,0,4.485-1.9c1.352-1.352,1.474-2.826,1.474-4.669V50.8H83.275v9.953c0,1.29.061,2.765-.8,3.87A4.481,4.481,0,0,1,79.221,66.1a4.25,4.25,0,0,1-3.379-1.6c-.8-1.044-.737-2.457-.737-3.748V50.8Z" transform="translate(-28.268 -19.591)"/>
    <path id="Pfad_77817" data-name="Pfad 77817" class="cls-1" d="M99.843,59.731h1.6c2.027,0,4.546.369,4.546,2.949s-2.212,3.072-4.3,3.072H99.843V59.731ZM98,67.472h3.87c3.318,0,6.021-1.352,6.021-4.669a4.238,4.238,0,0,0-3.195-4.3,3.758,3.758,0,0,0,1.659-3.256c0-3.44-2.58-4.546-5.591-4.546H98V67.472Zm1.843-14.99h.737c2.273,0,3.87.246,3.87,2.826s-1.782,2.826-3.932,2.826h-.676V52.482Z" transform="translate(-37.832 -19.552)"/>
    <path id="Pfad_77818" data-name="Pfad 77818" d="M118.5,67.51h8.662V65.79h-6.819V59.217h6.635V57.5h-6.635V52.52h6.819V50.8H118.5Z" transform="translate(-45.738 -19.591)"/>
    <path id="Pfad_77819" data-name="Pfad 77819" class="cls-1" d="M139.6,52.559h.553c2.273,0,4.239.246,4.239,3.01,0,2.58-2.15,3.01-4.239,3.01H139.6V52.559Zm0,7.679h.491l5.038,7.372h2.273l-5.345-7.5a4.358,4.358,0,0,0,4.178-4.608c0-3.748-2.949-4.608-6.144-4.608h-2.4V67.549h1.843V60.238Z" transform="translate(-53.142 -19.63)"/>
    <path id="Pfad_77820" data-name="Pfad 77820" d="M160.2,52.52h4.055V50.8H154.3v1.72h3.993V67.51h1.9Z" transform="translate(-59.544 -19.591)"/>
    <path id="Pfad_77821" data-name="Pfad 77821" d="M251.291,52.88a4.71,4.71,0,0,0-4.3-2.58,4.389,4.389,0,0,0-4.669,4.239c0,2.4,1.659,3.379,3.625,4.3l1.044.43c1.536.737,3.072,1.352,3.072,3.318a3.357,3.357,0,0,1-3.44,3.256,3.5,3.5,0,0,1-3.379-3.133L241.4,63.2a5.3,5.3,0,0,0,10.505-.86c0-2.642-1.843-3.748-3.993-4.731l-1.106-.491c-1.106-.491-2.642-1.167-2.642-2.642a2.638,2.638,0,0,1,2.765-2.58,3.092,3.092,0,0,1,2.887,1.843l1.474-.86Z" transform="translate(-93.133 -19.398)"/>
    <path id="Pfad_77822" data-name="Pfad 77822" class="cls-1" d="M270.343,62.24l1.966,4.731H274.4L266.841,49.4,259.1,66.971h2.027l2.027-4.731Zm-.737-1.72h-5.652l2.888-6.7,2.765,6.7Z" transform="translate(-99.959 -19.051)"/>
    <path id="Pfad_77823" data-name="Pfad 77823" d="M288.743,50.8H286.9V67.51h6.512V65.79h-4.669Z" transform="translate(-110.68 -19.591)"/>
    <path id="Pfad_77824" data-name="Pfad 77824" d="M302.572,65.79l9.154-14.99H300.667v1.72h7.987L299.5,67.51h11.98V65.79Z" transform="translate(-115.539 -19.591)"/>
    <path id="Pfad_77825" data-name="Pfad 77825" d="M322.9,67.51h8.724V65.79H324.8V59.217h6.574V57.5H324.8V52.52h6.819V50.8H322.9Z" transform="translate(-124.563 -19.591)"/>
    <path id="Pfad_77826" data-name="Pfad 77826" class="cls-1" d="M344.1,52.559h.553c2.273,0,4.239.246,4.239,3.01,0,2.58-2.15,3.01-4.239,3.01H344.1V52.559Zm0,7.679h.492l5.038,7.372h2.273l-5.345-7.5a4.358,4.358,0,0,0,4.178-4.608c0-3.748-2.949-4.608-6.144-4.608h-2.4V67.549h1.843V60.238Z" transform="translate(-132.006 -19.63)"/>
    <path id="Pfad_77827" data-name="Pfad 77827" class="cls-2" d="M196.444,20.335l16.772,17.448s9.338,12.041-1.782,23.284c-5.038,5.1-11.918,5.345-16.588,4.116a16.8,16.8,0,0,1-6.574-3.379l-2.642-2.7,9.707-9.584,1.352,1.413s3.133,2.457,5.222.246a3.675,3.675,0,0,0,.43-4.853l-16.71-17.448A18.345,18.345,0,0,1,181.7,17.632C181.638,10.2,187.72.061,199.516,0,210.7-.062,216.9,9.952,216.9,17.079c0,10.751-6.758,14.56-6.758,14.56l-9.461-9.891L202.1,20.4a4.17,4.17,0,0,0,.922-3.625,3.309,3.309,0,0,0-3.5-2.7,3.628,3.628,0,0,0-3.563,2.15,4.275,4.275,0,0,0,.491,4.116Z" transform="translate(-70.11 0)"/>
    <path id="Pfad_77828" data-name="Pfad 77828" class="cls-2" d="M172.9,55.7l9.584,10.014L161.414,86.786H142Z" transform="translate(-54.8 -21.481)"/>
  </g>
</svg>
